<?xml version="1.0" encoding="utf-8"?>
<!-- Generator: Adobe Illustrator 19.0.0, SVG Export Plug-In . SVG Version: 6.00 Build 0)  -->
<svg version="1.1" id="Layer_1" xmlns="http://www.w3.org/2000/svg" xmlns:xlink="http://www.w3.org/1999/xlink" x="0px" y="0px"
	 viewBox="0 0 201.6 298" style="enable-background:new 0 0 201.6 298;" xml:space="preserve">
<style type="text/css">
	.st0{fill:#FFFFFF;}
	.st1{fill:#1DAD4B;}
	.st2{fill:#ED1677;}
	.st3{fill:#3E5FAB;}
	.st4{fill:none;stroke:#000000;stroke-width:0.1;stroke-linecap:round;stroke-linejoin:round;}
	.st5{font-family:'TimesNewRomanPSMT';}
	.st6{font-size:17.3725px;}
	.st7{font-size:16.4655px;}
</style>
<g id="XMLID_28_">
	<g id="XMLID_91_">
		<path id="XMLID_191_" class="st0" d="M84.7,137.7l66.1-17.8c0.4-0.2,0.9-0.2,1.3-0.1c1.1,0.2,1.9,1.2,1.9,2.5v77.2
			c-0.1,1.9-1.3,3.5-3.2,4.1l-66.1,17.8c-1.1,0.4-2.3-0.1-2.9-1.1c-0.2-0.4-0.3-0.8-0.3-1.3v-77.2C81.6,139.9,82.9,138.2,84.7,137.7
			z M84.7,214.9c-0.1,1.7,1.6,2.9,3.1,2.4l59.8-16.1c1.8-0.5,3.1-2.2,3.1-4.1v-70.8c0.1-1.7-1.5-2.9-3.1-2.4l-15,4l-44.8,12.1
			c-1.8,0.6-3.1,2.2-3.1,4.1v54.4V214.9z"/>
		<path id="XMLID_188_" class="st0" d="M75.3,220.6V82.3l-18.2,4.9l-7,1.9v118.8v19.5L75.3,220.6L75.3,220.6L75.3,220.6z
			 M46.9,231.5V86.7l31.5-8.5v52.6v86.9v5.3L46.9,231.5z"/>
		<path id="XMLID_185_" class="st0" d="M84.7,76.6L135.1,63c0.4-0.2,0.9-0.2,1.3-0.1c1.1,0.2,1.9,1.2,1.8,2.4v42.9v8.6
			c-0.1,1.9-1.3,3.5-3.1,4.1l-50.4,13.5c-1.1,0.4-2.3-0.1-2.9-1.1c-0.2-0.4-0.3-0.8-0.3-1.3V80.6C81.6,78.8,82.9,77.1,84.7,76.6z
			 M84.7,128.1c-0.1,1.7,1.6,2.9,3.1,2.4l44.1-11.9c1.8-0.6,3.1-2.2,3.1-4.1v-45c0.1-1.7-1.6-2.9-3.1-2.4l-15,4l-29.1,7.8
			c-1.8,0.6-3.1,2.2-3.1,4.1v28.7V128.1z"/>
		<polygon id="XMLID_184_" class="st0" points="154,64.4 154,41.9 144.9,44.3 131.9,47.8 131.9,44.6 154.8,38.4 154.9,38.3 
			170.7,17.9 172.9,19.6 157.1,39.9 157.1,63.5 		"/>
		<polygon id="XMLID_183_" class="st1" points="170.7,17.9 154.9,38.3 154.8,38.4 145.7,31.1 161.6,10.6 		"/>
		<polygon id="XMLID_182_" class="st1" points="154.8,38.4 131.9,44.6 122.8,37.2 145.7,31.1 		"/>
		<polygon id="XMLID_181_" class="st1" points="154,41.9 154,64.4 144.9,57 144.9,44.3 		"/>
		<path id="XMLID_180_" class="st2" d="M150.8,126.3v70.8c-0.1,1.9-1.3,3.5-3.1,4.1l-59.8,16.1c-1.6,0.6-3.3-0.7-3.1-2.4v-16.3
			l44.8-12c1.8-0.6,3.1-2.2,3.1-4.1V128l15-4C149.3,123.4,150.9,124.7,150.8,126.3z"/>
		<path id="XMLID_179_" class="st1" d="M135.1,69.5v45c-0.1,1.9-1.3,3.5-3.1,4.1l-44.1,11.9c-1.6,0.6-3.3-0.7-3.1-2.4v-16.3l29-7.8
			c1.8-0.5,3.1-2.2,3.2-4.1V71.1l15-4C133.5,66.5,135.2,67.8,135.1,69.5z"/>
		<polygon id="XMLID_178_" class="st1" points="131.9,44.6 131.9,47.8 122.8,40.5 122.8,37.2 		"/>
		<path id="XMLID_177_" class="st2" d="M84.7,134.5l50.4-13.5c1.8-0.5,3.1-2.2,3.1-4.1v-8.6l14,11.3l-0.1,0.3
			c-0.4-0.1-0.9-0.1-1.3,0.1l-66.1,17.8c-1.8,0.5-3.1,2.2-3.1,4.1V219c0,0.5,0.1,0.9,0.3,1.3l-0.2,0l-3.2-2.6v-86.9l3.2,2.6l0.2,0
			C82.4,134.4,83.6,134.9,84.7,134.5z"/>
		<path id="XMLID_176_" class="st1" d="M81.6,132.1c0,0.5,0.1,0.9,0.3,1.3l-0.2,0l-3.2-2.6V78.3L63.3,66.1l0.1-0.1
			c0.1-1.9,1.3-3.5,3.2-4.1l50.4-13.5c0.9-0.3,1.5-0.2,2.2,0.3l0.1,0l17.3,13.9l-0.1,0.3c-0.4-0.1-0.9-0.1-1.3,0.1L84.7,76.6
			c-1.8,0.6-3.1,2.2-3.1,4.1V132.1z"/>
		<polygon id="XMLID_175_" class="st3" points="78.4,78.3 46.9,86.7 28.7,72.1 60.2,63.6 63.3,66.1 		"/>
		<polygon id="XMLID_174_" class="st3" points="75.3,82.3 75.3,220.6 75.2,220.6 57.1,206 57.1,87.2 		"/>
		<polygon id="XMLID_173_" class="st3" points="75.3,220.7 50.1,227.4 50.1,207.9 57.1,206 75.2,220.6 		"/>
		<polygon id="XMLID_172_" class="st3" points="46.9,86.7 46.9,231.5 28.7,216.8 28.7,72.1 		"/>
		<g id="XMLID_92_">
			<line id="XMLID_171_" class="st4" x1="138.2" y1="108.3" x2="152.2" y2="119.6"/>
			<line id="XMLID_170_" class="st4" x1="81.6" y1="220.3" x2="78.4" y2="217.7"/>
			<line id="XMLID_169_" class="st4" x1="119.2" y1="48.8" x2="136.5" y2="62.7"/>
			<line id="XMLID_168_" class="st4" x1="81.6" y1="133.4" x2="78.4" y2="130.9"/>
			<path id="XMLID_167_" class="st4" d="M87.9,217.3c-1.6,0.6-3.3-0.7-3.1-2.4"/>
			<line id="XMLID_166_" class="st4" x1="147.7" y1="201.2" x2="87.9" y2="217.3"/>
			<line id="XMLID_165_" class="st4" x1="129.5" y1="186.5" x2="84.7" y2="198.6"/>
			<path id="XMLID_164_" class="st4" d="M150.8,197.1c-0.1,1.9-1.3,3.5-3.1,4.1"/>
			<path id="XMLID_163_" class="st4" d="M132.6,182.5c-0.1,1.9-1.3,3.5-3.1,4.1"/>
			<line id="XMLID_162_" class="st4" x1="150.8" y1="126.3" x2="150.8" y2="197.1"/>
			<line id="XMLID_161_" class="st4" x1="132.6" y1="128" x2="132.6" y2="182.5"/>
			<path id="XMLID_160_" class="st4" d="M147.7,124c1.6-0.6,3.3,0.7,3.1,2.4"/>
			<polyline id="XMLID_159_" class="st4" points="87.9,140.1 132.6,128 147.7,124 			"/>
			<path id="XMLID_158_" class="st4" d="M84.7,144.1c0.1-1.9,1.3-3.5,3.1-4.1"/>
			<polyline id="XMLID_157_" class="st4" points="84.7,214.9 84.7,198.6 84.7,144.1 			"/>
			<line id="XMLID_156_" class="st4" x1="81.6" y1="141.8" x2="81.6" y2="219"/>
			<path id="XMLID_155_" class="st4" d="M84.7,137.7c-1.8,0.5-3.1,2.2-3.1,4.1"/>
			<line id="XMLID_154_" class="st4" x1="150.8" y1="119.9" x2="84.7" y2="137.7"/>
			<path id="XMLID_153_" class="st4" d="M154,122.3c0.1-1.2-0.8-2.2-1.9-2.5c-0.4-0.1-0.9-0.1-1.3,0.1"/>
			<line id="XMLID_152_" class="st4" x1="154" y1="199.5" x2="154" y2="122.3"/>
			<path id="XMLID_151_" class="st4" d="M150.8,203.6c1.8-0.6,3.1-2.2,3.2-4.1"/>
			<line id="XMLID_150_" class="st4" x1="84.7" y1="221.3" x2="150.8" y2="203.6"/>
			<path id="XMLID_149_" class="st4" d="M81.6,219c0,0.5,0.1,0.9,0.3,1.3c0.5,1,1.7,1.5,2.9,1.1"/>
			<path id="XMLID_148_" class="st4" d="M87.9,130.4c-1.6,0.6-3.3-0.7-3.1-2.4"/>
			<line id="XMLID_147_" class="st4" x1="131.9" y1="118.6" x2="87.9" y2="130.4"/>
			<line id="XMLID_146_" class="st4" x1="113.8" y1="103.9" x2="84.7" y2="111.7"/>
			<path id="XMLID_145_" class="st4" d="M135.1,114.5c-0.1,1.9-1.3,3.5-3.1,4.1"/>
			<path id="XMLID_144_" class="st4" d="M116.9,99.8c-0.1,1.9-1.3,3.5-3.2,4.1"/>
			<line id="XMLID_143_" class="st4" x1="135.1" y1="69.5" x2="135.1" y2="114.5"/>
			<line id="XMLID_142_" class="st4" x1="116.9" y1="71.1" x2="116.9" y2="99.8"/>
			<path id="XMLID_141_" class="st4" d="M131.9,67.1c1.6-0.6,3.3,0.7,3.1,2.4"/>
			<polyline id="XMLID_140_" class="st4" points="87.9,78.9 116.9,71.1 131.9,67.1 			"/>
			<path id="XMLID_139_" class="st4" d="M84.7,83c0.1-1.9,1.3-3.5,3.1-4.1"/>
			<polyline id="XMLID_138_" class="st4" points="84.7,128.1 84.7,111.7 84.7,83 			"/>
			<line id="XMLID_137_" class="st4" x1="81.6" y1="80.6" x2="81.6" y2="132.1"/>
			<path id="XMLID_136_" class="st4" d="M84.7,76.6c-1.8,0.6-3.1,2.2-3.1,4.1"/>
			<path id="XMLID_135_" class="st4" d="M66.5,61.9c-1.8,0.6-3.1,2.2-3.2,4.1"/>
			<line id="XMLID_134_" class="st4" x1="135.1" y1="63" x2="84.7" y2="76.6"/>
			<line id="XMLID_133_" class="st4" x1="116.9" y1="48.4" x2="66.5" y2="61.9"/>
			<path id="XMLID_132_" class="st4" d="M138.2,65.4c0.1-1.2-0.8-2.2-1.8-2.4c-0.4-0.1-0.9-0.1-1.3,0.1"/>
			<path id="XMLID_131_" class="st4" d="M119.1,48.7c-0.7-0.5-1.4-0.6-2.2-0.3"/>
			<polyline id="XMLID_130_" class="st4" points="138.2,116.9 138.2,108.3 138.2,65.4 			"/>
			<path id="XMLID_129_" class="st4" d="M135.1,120.9c1.8-0.5,3.1-2.2,3.1-4.1"/>
			<line id="XMLID_128_" class="st4" x1="84.7" y1="134.5" x2="135.1" y2="120.9"/>
			<path id="XMLID_127_" class="st4" d="M81.6,132.1c0,0.5,0.1,0.9,0.3,1.3c0.5,1,1.7,1.5,2.9,1.1"/>
			<line id="XMLID_126_" class="st4" x1="75.3" y1="220.7" x2="50.1" y2="227.4"/>
			<line id="XMLID_125_" class="st4" x1="57.1" y1="206" x2="50.1" y2="207.9"/>
			<line id="XMLID_124_" class="st4" x1="75.3" y1="82.3" x2="75.3" y2="220.6"/>
			<polyline id="XMLID_123_" class="st4" points="57.1,206 75.2,220.6 75.3,220.7 			"/>
			<line id="XMLID_122_" class="st4" x1="57.1" y1="87.2" x2="57.1" y2="206"/>
			<polyline id="XMLID_121_" class="st4" points="50.1,89.1 57.1,87.2 75.3,82.3 			"/>
			<polyline id="XMLID_120_" class="st4" points="50.1,227.4 50.1,207.9 50.1,89.1 			"/>
			<line id="XMLID_119_" class="st4" x1="46.9" y1="86.7" x2="46.9" y2="231.5"/>
			<line id="XMLID_118_" class="st4" x1="28.7" y1="72.1" x2="28.7" y2="216.8"/>
			<line id="XMLID_117_" class="st4" x1="78.4" y1="78.3" x2="46.9" y2="86.7"/>
			<line id="XMLID_116_" class="st4" x1="28.7" y1="72.1" x2="46.9" y2="86.7"/>
			<line id="XMLID_115_" class="st4" x1="60.2" y1="63.6" x2="28.7" y2="72.1"/>
			<polyline id="XMLID_114_" class="st4" points="78.4,223 78.4,217.7 78.4,130.9 78.4,78.3 			"/>
			<polyline id="XMLID_113_" class="st4" points="60.2,63.6 63.3,66.1 78.4,78.3 			"/>
			<line id="XMLID_112_" class="st4" x1="28.7" y1="216.8" x2="46.9" y2="231.5"/>
			<line id="XMLID_111_" class="st4" x1="46.9" y1="231.5" x2="78.4" y2="223"/>
			<line id="XMLID_110_" class="st4" x1="154.8" y1="38.4" x2="131.9" y2="44.6"/>
			<line id="XMLID_109_" class="st4" x1="145.7" y1="31.1" x2="122.8" y2="37.2"/>
			<line id="XMLID_108_" class="st4" x1="170.7" y1="17.9" x2="154.9" y2="38.3"/>
			<line id="XMLID_107_" class="st4" x1="145.7" y1="31.1" x2="154.8" y2="38.4"/>
			<line id="XMLID_106_" class="st4" x1="161.6" y1="10.6" x2="145.7" y2="31.1"/>
			<line id="XMLID_105_" class="st4" x1="172.9" y1="19.6" x2="170.7" y2="17.9"/>
			<line id="XMLID_104_" class="st4" x1="161.6" y1="10.6" x2="170.7" y2="17.9"/>
			<line id="XMLID_103_" class="st4" x1="157.1" y1="39.9" x2="172.9" y2="19.6"/>
			<line id="XMLID_102_" class="st4" x1="157.1" y1="63.5" x2="157.1" y2="39.9"/>
			<line id="XMLID_101_" class="st4" x1="154" y1="64.4" x2="157.1" y2="63.5"/>
			<line id="XMLID_100_" class="st4" x1="154" y1="41.9" x2="154" y2="64.4"/>
			<line id="XMLID_99_" class="st4" x1="144.9" y1="57" x2="154" y2="64.4"/>
			<line id="XMLID_98_" class="st4" x1="144.9" y1="44.3" x2="144.9" y2="57"/>
			<polyline id="XMLID_97_" class="st4" points="131.9,47.8 144.9,44.3 154,41.9 			"/>
			<line id="XMLID_96_" class="st4" x1="122.8" y1="37.2" x2="131.9" y2="44.6"/>
			<line id="XMLID_95_" class="st4" x1="131.9" y1="44.6" x2="131.9" y2="47.8"/>
			<line id="XMLID_94_" class="st4" x1="122.8" y1="40.5" x2="131.9" y2="47.8"/>
			<line id="XMLID_93_" class="st4" x1="122.8" y1="37.2" x2="122.8" y2="40.5"/>
		</g>
	</g>
	<g id="XMLID_219_">
		<rect id="XMLID_220_" x="16.6" y="264.5" width="166.9" height="0.7"/>
		<text id="XMLID_217_" transform="matrix(1 0 0 1 16.6127 258.6313)" class="st5 st6">Bangkok Dec-Con</text>
		<text id="XMLID_218_" transform="matrix(1 0 0 1 16.6129 280.6807)" class="st5 st7">public Company Limited</text>
	</g>
</g>
</svg>
